<svg width="1200" height="630" viewBox="0 0 1200 630" fill="none" xmlns="http://www.w3.org/2000/svg">
  <!-- Background gradient -->
  <rect width="1200" height="630" fill="#0f172a"/>
  <rect width="1200" height="630" fill="url(#grad1)"/>

  <!-- Logo -->
  <rect x="100" y="230" width="80" height="80" rx="16" fill="#6366f1"/>
  <path d="M120 254h10v40h-10v-40zm15 0h10l10 40h-10l-10-40zm15 0h10v40h-10v-40z" fill="white"/>

  <!-- Text -->
  <text x="200" y="285" font-family="Inter, system-ui, sans-serif" font-size="64" font-weight="700" fill="white">Ndmr</text>

  <text x="100" y="360" font-family="Inter, system-ui, sans-serif" font-size="32" fill="#94a3b8">Programmez votre radio DMR</text>
  <text x="100" y="405" font-family="Inter, system-ui, sans-serif" font-size="32" font-weight="600" fill="#6366f1">simplement</text>

  <!-- Features pills -->
  <rect x="100" y="460" width="160" height="40" rx="20" fill="#1e293b" stroke="#334155"/>
  <text x="180" y="487" font-family="Inter, system-ui, sans-serif" font-size="16" fill="#94a3b8" text-anchor="middle">Multiplateforme</text>

  <rect x="280" y="460" width="120" height="40" rx="20" fill="#1e293b" stroke="#334155"/>
  <text x="340" y="487" font-family="Inter, system-ui, sans-serif" font-size="16" fill="#94a3b8" text-anchor="middle">Gratuit</text>

  <rect x="420" y="460" width="140" height="40" rx="20" fill="#1e293b" stroke="#334155"/>
  <text x="490" y="487" font-family="Inter, system-ui, sans-serif" font-size="16" fill="#94a3b8" text-anchor="middle">Open Source</text>

  <!-- URL -->
  <text x="100" y="570" font-family="Inter, system-ui, sans-serif" font-size="24" fill="#64748b">ndmr.app</text>

  <!-- Decorative elements -->
  <circle cx="1000" cy="150" r="200" fill="#6366f1" fill-opacity="0.1"/>
  <circle cx="1100" cy="400" r="150" fill="#10b981" fill-opacity="0.1"/>

  <defs>
    <linearGradient id="grad1" x1="0" y1="0" x2="1200" y2="630">
      <stop offset="0%" stop-color="#6366f1" stop-opacity="0.05"/>
      <stop offset="100%" stop-color="#10b981" stop-opacity="0.05"/>
    </linearGradient>
  </defs>
</svg>
